<svg id="visual" viewBox="0 0 900 600" width="900" height="600" xmlns="http://www.w3.org/2000/svg" xmlns:xlink="http://www.w3.org/1999/xlink" version="1.1"><rect x="0" y="0" width="900" height="600" fill="#42409E"></rect><path d="M0 380L18.8 397.5C37.7 415 75.3 450 112.8 459C150.3 468 187.7 451 225.2 436.3C262.7 421.7 300.3 409.3 337.8 422.2C375.3 435 412.7 473 450.2 484C487.7 495 525.3 479 562.8 463.8C600.3 448.7 637.7 434.3 675.2 422.3C712.7 410.3 750.3 400.7 787.8 419C825.3 437.3 862.7 483.7 881.3 506.8L900 530L900 601L881.3 601C862.7 601 825.3 601 787.8 601C750.3 601 712.7 601 675.2 601C637.7 601 600.3 601 562.8 601C525.3 601 487.7 601 450.2 601C412.7 601 375.3 601 337.8 601C300.3 601 262.7 601 225.2 601C187.7 601 150.3 601 112.8 601C75.3 601 37.7 601 18.8 601L0 601Z" fill="#ffffff" stroke-linecap="round" stroke-linejoin="miter"></path></svg>